{"title":"Little.Buddha.1993.BRRip.720p.x264.AAC-PRiSTiNE [P2PDL]","uid":13099690,"size":850306060,"categoryP":"video","categoryS":"hd___movies","magnet":"?xt=urn:btih:683fd93f40e94a9f6a1cee8ce2fe2e6ea3cb8f51&amp;dn=Little.Buddha.1993.BRRip.720p.x264.AAC-PRiSTiNE+%5BP2PDL%5D&amp;tr=udp%3A%2F%2Ftracker.leechers-paradise.org%3A6969&amp;tr=udp%3A%2F%2Fzer0day.ch%3A1337&amp;tr=udp%3A%2F%2Fopen.demonii.com%3A1337&amp;tr=udp%3A%2F%2Ftracker.coppersurfer.tk%3A6969&amp;tr=udp%3A%2F%2Fexodus.desync.com%3A6969","seeders":1,"leechers":0,"uploader":"VYTOP2PDL","files":7,"time":1451211944,"description":"____    ____ ____    ____ .___________.  ______   \r\n     /   /      /   / |           | /  __    \r\n    /   /      /   /  `---|  |----`|  |  |  | \r\n        /     _    _/       |  |     |  |  |  | \r\n       /        |  |         |  |     |  `--'  | \r\n    __/         |__|         |__|      ______/  \r\n                                                  \r\nPresenting Small Encodes with quality for years!\r\n                                                                                                   \r\n                                                                                                   \r\n\r\nLittle.Buddha.1993.BRRip.720p.x264.AAC-PRiSTiNE\r\n\r\n\r\nGenre: Drama  \nhttp://www.imdb.com/title/tt0107426/\r\n\r\n\r\nFormat                                   : MPEG-4\r\nFile size                                : 802 MiB\r\nDuration                                 : 2h 20mn\r\nOverall bit rate                         : 797 Kbps\r\n\r\nVideo\r\nFormat                                   : AVC\r\nBit rate                                 : 714 Kbps\r\nWidth                                    : 1 280 pixels\r\nHeight                                   : 640 pixels\r\nFrame rate mode                          : Constant\r\nFrame rate                               : 24.000 fps\r\nColor space                              : YUV\r\nChroma subsampling                       : 4:2:0\r\nBit depth                                : 8 bits\r\nStream size                              : 718 MiB (90%)\r\nWriting library                          : x264\r\n\r\nAudio\r\nFormat                                   : AAC\r\nBit rate mode                            : Variable\r\nBit rate                                 : 79.9 Kbps\r\nChannel(s)                               : 2 channels\r\nChannel positions                        : Front: L R\r\nSampling rate                            : 48.0 KHz\r\nStream size                              : 80.4 MiB (10%)\r\nLanguage                                 : English\r\n\r\nSubtitle                                 : Yes (English)\r\n\r\nScreen Shots: (Click to view)\r\n \nhttp://ititli.com/3T \nhttp://ititli.com/3W \nhttp://ititli.com/3g \nhttp://ititli.com/3n \nhttp://ititli.com/3w \nhttp://ititli.com/32 \nhttp://ititli.com/36\r\n\r\n----------------------------------------------------------------------------------------------------\r\n\r\n\r\nEncoder Notes: Looking For Early Access To Anything You Can Provide WEBDL, DVDScr, DVDR, BluRay,\r\nDirect Audio, Music Releases and Seedboxes. If You Got anything to offer please contact us.\r\n\r\nSupport us by donating BC - 1FgwdzPsd1y25Gea8wP1qni35uGCtmkRCD\r\n\r\nSend some love!\r\nFind us and join us!","torrent":{"xt":"urn:btih:683fd93f40e94a9f6a1cee8ce2fe2e6ea3cb8f51","amp;dn":"Little.Buddha.1993.BRRip.720p.x264.AAC-PRiSTiNE+%5BP2PDL%5D","amp;tr":["udp%3A%2F%2Ftracker.leechers-paradise.org%3A6969","udp%3A%2F%2Fzer0day.ch%3A1337","udp%3A%2F%2Fopen.demonii.com%3A1337","udp%3A%2F%2Ftracker.coppersurfer.tk%3A6969","udp%3A%2F%2Fexodus.desync.com%3A6969"],"infoHash":"683fd93f40e94a9f6a1cee8ce2fe2e6ea3cb8f51","infoHashBuffer":{"type":"Buffer","data":[104,63,217,63,64,233,74,159,106,28,238,140,226,254,46,110,163,203,143,81]},"announce":[],"urlList":[]}}